<svg version="1.0" xmlns="http://www.w3.org/2000/svg" width="100%" height="100%" viewBox="0 0 1024.000000 1024.000000" preserveAspectRatio="xMidYMid meet">

<g transform="translate(0.000000,1024.000000) scale(0.100000,-0.100000)" fill="#3dbb95" stroke="none">
<path d="M4865 7511 c-52 -24 -325 -301 -355 -360 -14 -28 -25 -75 -30 -130 -12 -117 -41 -205 -98 -292 -153 -234 -409 -360 -697 -345 -60 3 -135 12 -166 21 -222 60 -394 211 -466 409 -8 23 -18 86 -23 141 -8 116 -28 164 -91 225 -87 85 -243 105 -362 47 -97 -48 -189 -158 -230 -277 -24 -68 -105 -370 -112 -416 l-6 -40 133 -61 c73 -34 212 -96 308 -138 366 -160 503 -240 642 -373 107 -102 169 -186 233 -317 53 -106 105 -273 105 -336 0 -56 15 -76 77 -97 93 -32 572 -220 913 -357 488 -197 861 -328 1105 -389 109 -27 366 -78 370 -74 2 2 27 64 56 138 152 385 368 745 653 1088 34 41 72 87 85 103 l23 29 -112 117 c-61 64 -126 127 -143 140 -36 26 -85 30 -126 8 -16 -8 -175 -164 -355 -347 -180 -183 -343 -346 -364 -361 -33 -25 -44 -28 -94 -25 -95 7 -162 76 -160 166 0 54 14 74 126 186 50 50 218 219 373 376 l282 285 -97 103 c-92 97 -99 102 -138 102 -26 0 -50 -7 -65 -19 -13 -10 -204 -200 -424 -421 -220 -221 -412 -408 -427 -416 -88 -46 -215 19 -238 122 -17 74 -15 77 454 544 l445 443 -55 63 c-64 72 -99 89 -149 71 -24 -8 -121 -101 -317 -302 -156 -159 -296 -301 -312 -315 -43 -36 -136 -36 -190 0 -79 52 -100 156 -46 226 16 21 169 181 339 354 l310 315 -182 183 c-108 108 -199 190 -223 202 -51 25 -126 25 -179 1z"/>
<path d="M2115 6101 c-28 -146 -2 -234 97 -327 71 -66 250 -145 708 -309 96 -35 226 -82 289 -104 l114 -41 -7 41 c-8 50 -65 165 -116 233 -48 65 -160 171 -230 217 -75 50 -123 73 -360 174 -113 48 -261 112 -330 142 -69 31 -130 57 -136 60 -7 2 -18 -29 -29 -86z"/>
<path d="M1120 5933 c-107 -55 -107 -199 0 -271 l34 -23 337 3 c323 3 339 4 365 24 71 53 90 121 52 193 -46 88 -34 86 -416 89 -306 2 -340 1 -372 -15z"/>
<path d="M7147 5476 c-181 -189 -365 -435 -500 -671 -94 -165 -238 -488 -223 -502 12 -12 331 -24 496 -19 466 15 864 98 1293 270 104 42 193 76 199 76 26 0 82 -36 99 -64 38 -62 16 -160 -44 -199 -12 -8 -75 -37 -139 -65 -455 -198 -902 -296 -1418 -309 -421 -11 -779 31 -1234 143 -267 66 -605 185 -1141 399 -709 284 -801 318 -1680 633 -243 87 -573 216 -708 276 -100 45 -181 28 -228 -46 -15 -26 -19 -45 -16 -86 5 -67 28 -99 98 -134 83 -42 424 -175 750 -293 162 -58 389 -140 504 -182 251 -90 576 -216 1050 -405 449 -179 650 -254 910 -339 500 -164 945 -245 1457 -266 l171 -6 -39 -20 c-200 -103 -455 -143 -858 -134 -510 10 -996 118 -1711 380 -519 190 -1485 586 -2168 888 -98 44 -189 79 -203 79 -33 0 -99 -34 -119 -62 -46 -66 -38 -159 19 -213 32 -30 149 -84 611 -283 832 -358 1679 -694 2095 -830 426 -140 815 -228 1170 -263 163 -17 639 -17 805 -1 703 68 1452 335 1936 691 243 178 447 400 544 590 51 101 55 123 55 299 1 179 -10 235 -62 321 -36 58 -118 141 -183 183 -84 55 -162 74 -395 98 -323 32 -469 48 -695 75 -115 14 -262 31 -325 38 l-115 14 -58 -61z"/>
<path d="M1169 5120 c-41 -12 -77 -40 -100 -77 -27 -44 -23 -139 8 -181 71 -95 224 -95 298 2 35 46 42 95 21 151 -34 88 -133 134 -227 105z"/>
<path d="M1114 4391 c-76 -46 -97 -132 -53 -211 40 -71 72 -80 275 -80 166 0 182 2 219 23 80 44 103 143 51 219 -42 61 -70 68 -276 68 -164 0 -189 -2 -216 -19z"/>
<path d="M1161 3729 c-134 -29 -163 -197 -47 -283 27 -21 35 -21 1039 -24 l1012 -2 45 22 c106 54 120 169 31 253 l-32 30 -247 7 c-318 9 -1756 7 -1801 -3z"/>
<path d="M1215 3051 c-92 -7 -132 -29 -159 -85 -23 -49 -20 -102 9 -151 47 -82 -115 -75 1799 -75 1678 0 1707 0 1745 20 53 26 81 75 81 137 0 64 -30 110 -90 141 l-44 22 -1631 -2 c-896 0 -1666 -4 -1710 -7z"/>
<path d="M5316 3010 c-111 -34 -126 -188 -23 -250 28 -17 51 -20 175 -20 169 0 208 13 242 80 26 50 25 76 -3 124 -37 65 -70 76 -227 75 -74 0 -148 -5 -164 -9z"/>
</g>
</svg>